PathFileType	4	(X/Y/Z)	C:\Git\research_data\Projects\torsion_deformities_healthy_kinematics\simulations\TD01\pre\dynamic_12_l\marker_experimental.trc
DataRate	CameraRate	NumFrames	NumMarkers	Units	OrigDataRate	OrigDataStartFrame	OrigNumFrames
200	200	6	30	mm	200	381	609
Frame#	Time	C7			T10			CLAV			STRN			RBAK			LASI			RASI			SACR			RT1			RT2			RT3			RKNE			RS1			RS2			RS3			RANK			RHEE			RTOE			LT1			LT2			LT3			LKNE			LS1			LS2			LS3			LANK			LHEE			LTOE			RHJC			LHJC		
		X1	Y1	Z1	X2	Y2	Z2	X3	Y3	Z3	X4	Y4	Z4	X5	Y5	Z5	X6	Y6	Z6	X7	Y7	Z7	X8	Y8	Z8	X9	Y9	Z9	X10	Y10	Z10	X11	Y11	Z11	X12	Y12	Z12	X13	Y13	Z13	X14	Y14	Z14	X15	Y15	Z15	X16	Y16	Z16	X17	Y17	Z17	X18	Y18	Z18	X19	Y19	Z19	X20	Y20	Z20	X21	Y21	Z21	X22	Y22	Z22	X23	Y23	Z23	X24	Y24	Z24	X25	Y25	Z25	X26	Y26	Z26	X27	Y27	Z27	X28	Y28	Z28	X29	Y29	Z29	X30	Y30	Z30	

381	1.900000	1115.655884	1237.377930	218.957626	1070.522461	1053.578003	210.663437	1240.648438	1188.195190	218.195053	1278.994141	1052.734009	219.153091	1084.821777	1167.123169	318.835663	1223.076782	841.705872	121.301544	1191.231689	856.660706	321.903900	1048.487305	890.445190	195.165573	1120.667358	652.916443	346.881134	1071.392822	608.454346	342.210175	1118.945068	588.897095	330.571381	1059.866089	463.750793	306.829132	968.245483	356.712982	320.815643	929.537292	304.429688	304.805267	978.349304	291.733765	309.807220	886.944458	110.506104	265.954315	842.793945	114.040215	211.656586	1018.617432	63.040318	249.811996	1216.728882	653.884644	70.014969	1210.051758	586.714050	74.202202	1257.985107	603.117065	85.855331	1292.696289	468.891144	104.305054	1297.733398	325.685638	82.692719	1316.255127	262.937408	92.154449	1356.173340	295.380219	87.965080	1402.680054	102.402618	114.404938	1378.854492	80.929520	164.658966	1549.332275	139.277451	115.083221	1129.582614	797.423262	288.793486	1152.883243	786.481009	142.015417	
382	1.905000	1122.567749	1236.377075	218.438507	1077.562012	1052.508789	210.124207	1247.573608	1187.196777	217.777878	1286.031128	1051.736816	218.828186	1091.613037	1166.075439	318.256134	1230.552002	840.500977	121.173042	1198.189209	855.661133	321.696045	1055.788574	889.348145	194.455719	1126.485840	652.204651	346.831665	1077.055054	607.940796	342.180511	1124.545288	588.145081	330.689697	1064.691406	463.145599	306.994934	972.102173	356.962311	321.100891	932.753540	305.117767	305.243927	981.457336	291.892090	309.906006	887.698669	111.722092	266.507782	843.439209	115.892105	212.368774	1018.723206	63.002575	249.850128	1224.523926	652.523193	70.440140	1217.392212	585.382874	74.652908	1265.327881	601.502075	86.687431	1298.905396	467.681915	105.139168	1304.917969	324.353210	84.019623	1324.355713	261.885010	93.754135	1363.839600	294.839966	88.963516	1413.063965	102.467163	116.491119	1390.176025	80.885330	167.187714	1559.506592	141.620483	115.624283	1136.609730	796.399987	288.481286	1160.288942	785.307602	141.762594	
383	1.910000	1129.503296	1235.407837	217.892227	1084.641724	1051.463745	209.583740	1254.526978	1186.241089	217.327301	1293.115845	1050.791260	218.458572	1098.437744	1165.057251	317.645416	1238.077759	839.346191	121.039757	1205.247070	854.667847	321.484344	1063.145264	888.275208	193.791031	1132.460205	651.479797	346.781586	1082.885254	607.396606	342.161469	1130.314331	587.380615	330.790558	1069.709351	462.521820	307.170929	976.111694	357.227692	321.381561	936.105347	305.843414	305.685883	984.687500	292.070251	309.997986	888.506104	113.029495	267.073792	844.158508	117.873238	213.087387	1018.843140	62.969639	249.890503	1232.573242	651.423462	70.885147	1225.176636	584.344299	75.121773	1273.059692	600.312805	87.555397	1305.383789	466.555878	105.937355	1312.035156	323.027618	85.384087	1332.153442	260.794739	95.409782	1371.316650	294.102417	90.060837	1422.537842	102.253235	118.719566	1400.462524	80.657959	169.822693	1568.809937	143.219635	116.445671	1143.731583	795.388281	288.169461	1167.753032	784.177783	141.508833	
384	1.915000	1136.462524	1234.475098	217.319717	1091.760376	1050.448853	209.043365	1261.507935	1185.332886	216.843979	1300.247559	1049.902710	218.044403	1105.296265	1164.074707	317.004761	1245.652100	838.251587	120.901550	1212.406250	853.685913	321.268188	1070.554810	887.232605	193.175140	1138.595947	650.746338	346.726318	1088.885620	606.826660	342.152069	1136.253540	586.607483	330.869446	1074.930786	461.880005	307.363037	980.271973	357.516022	321.661957	939.590393	306.614746	306.132904	988.036743	292.275818	310.091431	889.372009	114.436172	267.655518	844.961792	119.993713	213.813766	1018.979126	62.940876	249.934372	1240.855957	650.580566	71.350174	1233.388550	583.591125	75.604408	1281.160522	599.543945	88.469131	1312.144287	465.518433	106.712921	1319.105347	321.715881	86.785255	1339.661743	259.663361	97.115021	1378.627197	293.165924	91.254051	1431.126099	101.749138	121.041473	1409.700928	80.223747	172.489563	1577.280640	144.008347	117.594307	1150.949484	794.393610	287.857204	1175.274707	783.100669	141.253551	
385	1.920000	1143.445068	1233.583862	216.722092	1098.916260	1049.469849	208.504379	1268.515747	1184.476196	216.328857	1307.425415	1049.076050	217.586197	1112.188477	1163.133667	316.335602	1253.271973	837.227051	120.758232	1219.666504	852.720825	321.046539	1078.013672	886.226990	192.611115	1144.897827	650.009216	346.661835	1095.058105	606.236267	342.151428	1142.364380	585.830017	330.923767	1080.367676	461.220245	307.578369	984.583252	357.833893	321.947937	943.208740	307.439728	306.587891	991.504395	292.516510	310.196411	890.303711	115.949875	268.257050	845.861938	122.263878	214.549973	1019.132935	62.914764	249.982468	1249.343994	649.980347	71.833099	1241.995728	583.104187	76.094719	1289.598511	599.171326	89.430069	1319.192505	464.574829	107.478561	1326.148438	320.428711	88.218132	1346.899536	258.493713	98.860214	1385.794922	292.039978	92.538437	1438.869141	100.961510	123.408607	1417.900146	79.579559	175.117493	1584.970703	143.944855	119.108582	1158.263426	793.422014	287.543432	1182.851933	782.085503	140.996139	
386	1.925000	1150.450562	1232.738525	216.100708	1106.107178	1048.532593	207.968079	1275.549805	1183.675415	215.783112	1314.648315	1048.315674	217.084930	1119.114014	1162.240112	315.639679	1260.933960	836.282349	120.609573	1227.027100	851.778503	320.818268	1085.518066	885.264648	192.101410	1151.370361	649.273621	346.585144	1101.405396	605.630615	342.159088	1148.649292	585.052612	330.953156	1086.033447	460.542053	307.824921	989.048828	358.187469	322.246460	946.963440	308.326080	307.054871	995.093384	292.799957	310.324585	891.311340	117.577919	268.883301	846.875427	124.694130	215.298599	1019.306335	62.888699	250.034927	1258.003540	649.600403	72.329773	1250.950684	582.853577	76.586693	1298.331299	599.153442	90.430542	1326.527222	463.730530	108.245598	1333.183716	319.180450	89.672951	1353.893066	257.295349	100.631302	1392.845093	290.745728	93.907616	1445.822998	99.914833	125.775108	1425.092529	78.743629	177.642258	1591.944214	143.013596	121.014114	1165.673085	792.479704	287.227123	1190.482451	781.141297	140.736099	
